<?xml version="1.0" encoding="utf-8"?>
<!-- Generator: Adobe Illustrator 19.0.0, SVG Export Plug-In . SVG Version: 6.00 Build 0)  -->
<svg version="1.1" id="Layer_1" xmlns="http://www.w3.org/2000/svg" xmlns:xlink="http://www.w3.org/1999/xlink" x="0px" y="0px"
	 viewBox="-39 37 216 216" style="enable-background:new -39 37 216 216;" xml:space="preserve">
<style type="text/css">
	.st0{fill:#FFFFFF;}
</style>
<g>
	<path class="st0" d="M-38.6,37.1c67.6,0,134.6,0,202.2,0c0,4.2,0,8.2,0,13c4.7,0,8.8,0,13.4,0c0,68,0,135.2,0,202.9
		c-71.6,0-143.3,0-215.6,0C-38.6,181.3-38.6,109.4-38.6,37.1z M-12.1,239.7c54.5,0,108.4,0,163,0c0-4.6,0-8.7,0-13.4
		c4.8,0,8.7,0,12.9,0c0-4.7,0-8.9,0-13.8c-4.5,0-8.7,0-13.3,0c0-18.3,0-35.8,0-54.1c-4.7,0-8.8,0-13.7,0c0-4.9,0-9,0-12.9
		c-45.6,0-90.4,0-135.7,0c0,4.5,0,8.5,0,13.2c-4.7,0-8.8,0-13.1,0C-12.1,186.1-12.1,212.6-12.1,239.7z M15.3,50.3
		c0,22.9,0,45.1,0,67.3c36.2,0,72,0,107.8,0c0-22.7,0-44.9,0-67.3C87,50.3,51.3,50.3,15.3,50.3z M137.1,90.6c9.2,0,17.9,0,26.7,0
		c0-4.6,0-8.7,0-13c-9.1,0-17.7,0-26.7,0C137.1,82,137.1,86,137.1,90.6z"/>
	<path class="st0" d="M136.5,186.5c0,4.3,0,8.1,0,12.3c-44.8,0-89.4,0-134.5,0c0-3.9,0-7.8,0-12.3
		C46.5,186.5,91.3,186.5,136.5,186.5z"/>
	<path class="st0" d="M136.5,213.6c0,4.3,0,8.1,0,12.3c-44.8,0-89.4,0-134.5,0c0-3.9,0-7.8,0-12.3
		C46.5,213.6,91.3,213.6,136.5,213.6z"/>
	<path class="st0" d="M123,159.3c0,4.3,0,8.1,0,12.3c-35.8,0-71.4,0-107.4,0c0-3.9,0-7.9,0-12.3C51.1,159.3,86.8,159.3,123,159.3z"
		/>
	<path class="st0" d="M95.9,64.5c0,13.4,0,26.2,0,39.4c-8.7,0-17.2,0-26.1,0c0-12.9,0-25.9,0-39.4C78.2,64.5,86.8,64.5,95.9,64.5z"
		/>
</g>
</svg>
